<?xml version="1.0" encoding="utf-8"?>
<!-- Generator: Adobe Illustrator 19.0.0, SVG Export Plug-In . SVG Version: 6.00 Build 0)  -->
<svg version="1.1" id="Layer_1" xmlns="http://www.w3.org/2000/svg" xmlns:xlink="http://www.w3.org/1999/xlink" x="0px" y="0px"
	 viewBox="0 0 409.6 76.3" style="enable-background:new 0 0 409.6 76.3;" xml:space="preserve">
<style type="text/css">
	.st0{fill:#C19236;}
</style>
<g>
	<path class="st0" d="M15.4,34.2c0,2.1,0.4,3.4,1.2,4c0.9,0.6,2.7,0.9,5.4,0.9c4.2,0,7.3-1.1,9.7-3.4c2.3-2.2,3.7-5.5,4-9.9h3.2
		L38,42H0v-2.9c2.1-0.2,3.4-0.6,4-1.1c0.6-0.6,0.9-1.8,0.9-3.8V7.8c0-2-0.2-3.2-0.9-3.7c-0.6-0.6-2-1-4-1.2V0h20.3v2.9
		c-2.1,0.2-3.4,0.6-4,1.1c-0.6,0.6-0.9,1.8-0.9,3.8V34.2z M44.1,7.8c0-2-0.4-3.3-1-3.8c-0.6-0.6-2-1-4.2-1.1V0h20v2.9
		c-1.8,0.1-3.1,0.5-3.7,1c-0.6,0.6-0.9,2-0.9,3.9v18.6c0,4.4,0.7,7.6,2.3,9.7c1.5,2,4,2.9,7.3,2.9c3.4,0,5.9-1,7.5-3.1
		c1.6-2.1,2.4-5.3,2.4-9.5V7.8c0-2-0.2-3.3-0.9-3.9c-0.6-0.5-1.8-0.9-3.7-1V0h13.1v2.9c-2.2,0.1-3.5,0.5-4.2,1.1
		c-0.6,0.5-0.9,1.8-0.9,3.8v17.7c0,6.1-1.3,10.5-4,13.3c-2.7,2.8-7,4.2-12.8,4.2c-5.7,0-10-1.3-12.7-4.2c-2.7-2.8-3.9-7.3-3.9-13.3
		V7.8z M91.5,7.8c0-2-0.2-3.2-0.9-3.7c-0.6-0.6-2-1-4-1.2V0h20.2v2.9c-2.1,0.2-3.4,0.6-4,1.2c-0.6,0.5-1,1.7-1,3.7v12.7L114,9
		c0.7-0.7,1.3-1.5,1.8-2.2c0.4-0.6,0.6-1.2,0.6-1.8c0-0.6-0.4-1.2-1.2-1.5c-0.7-0.4-2-0.6-3.4-0.6h-0.4V0h18.8v2.9h-0.4
		c-1.3,0-2.8,0.4-4.3,1c-1.3,0.6-2.7,1.6-4,2.8l-8.9,8.2l14.5,19.6c0.9,1.2,1.8,2.2,2.8,3.1c1,0.7,2,1.3,3.1,1.6V42h-20.8v-2.9
		c1.8-0.1,3.1-0.2,3.5-0.4c0.4-0.2,0.6-0.6,0.6-1.1c0-0.6-0.2-1.2-0.6-1.8l-0.1-0.1l-10.6-14.5l-3.3,3.1v10c0,2,0.4,3.2,1,3.8
		c0.6,0.5,2,0.9,4,1.1V42H86.7v-2.9c2.1-0.2,3.4-0.6,4-1.1c0.6-0.6,0.9-1.8,0.9-3.8V7.8z M133.7,42v-2.9c2.1-0.2,3.4-0.6,4-1.1
		c0.6-0.6,1-1.8,1-3.8V7.8c0-2-0.4-3.2-1-3.7c-0.6-0.6-2-1-4-1.2V0h39.5l0.9,14.2h-3.3c-0.7-4-2.2-6.8-4.5-8.6
		c-2.3-1.8-5.7-2.7-10.3-2.7c-2.8,0-4.6,0.4-5.5,0.9c-0.9,0.6-1.3,2-1.3,4v10.9h2.6c2.4,0,4.3-0.6,5.5-2c1.2-1.3,2-3.4,2.2-6.4h2.9
		v19.8h-2.9c-0.2-2.9-1-5-2.2-6.4c-1.2-1.3-3.1-2.1-5.5-2.1h-2.6v12.5c0,2.2,0.5,3.5,1.3,4c0.9,0.6,2.7,0.9,5.6,0.9
		c4.9,0,8.6-1,10.9-2.9c2.4-1.8,3.9-5,4.4-9.4h3.2L173.7,42H133.7z M235.7,27.5c0,3.1-0.1,5.3-0.5,6.8c-0.4,1.5-1.1,2.8-2,3.9
		c-1.2,1.6-2.9,2.8-5.1,3.5c-2.1,0.9-4.6,1.3-7.3,1.3c-3.7,0-6.5-0.9-8.6-2.4c-2.1-1.5-3.1-3.5-3.1-6.2c0-1.7,0.5-3.1,1.5-4.2
		c1.1-1.1,2.3-1.6,3.9-1.6c1.5,0,2.7,0.5,3.7,1.5c1,1,1.5,2.2,1.5,3.7c0,1.5-0.7,2.8-2.1,4c-0.4,0.4-0.6,0.6-0.6,0.7
		c0,0.4,0.2,0.6,0.7,1c0.6,0.2,1.2,0.5,1.8,0.5c2,0,3.3-0.9,4.3-2.4c1-1.6,1.5-3.9,1.5-7.1V7.8c0-2-0.4-3.2-1-3.7
		c-0.7-0.6-2.2-1-4.5-1.2V0h20.9v2.9c-2.1,0.2-3.4,0.6-4,1.2c-0.6,0.5-1,1.7-1,3.7V27.5z M253.4,24.9h11.4l-5.4-16.5L253.4,24.9z
		 M241.4,42v-2.9c1.2-0.2,2.2-0.7,3.1-1.6c0.7-0.7,1.5-2.2,2.2-4.2L259.5,0h6.7l12.5,34.1c0.6,1.7,1.3,2.9,2.2,3.7
		c0.7,0.6,1.8,1.1,3.3,1.3V42h-20.4v-2.9c1.8-0.1,3.1-0.4,3.8-0.7c0.6-0.4,1-1,1-1.8c0-0.4-0.1-1-0.4-1.8c0-0.1,0-0.1,0-0.1
		l-2.2-6.7h-13.7l-1.7,5.3v0.2c-0.5,1.3-0.7,2.3-0.7,2.9c0,0.9,0.2,1.5,1,1.8c0.6,0.5,1.7,0.7,3.4,1V42H241.4z M294.7,2.9h-0.6v31.3
		c0,2,0.4,3.3,1,3.8c0.7,0.6,2.2,1,4.6,1.1V42H285v-2.9c2.4-0.1,3.9-0.5,4.6-1.1c0.6-0.5,1-1.8,1-3.8V7.8c0-2-0.4-3.2-1-3.8
		c-0.7-0.6-2.2-1-4.6-1.1V0h18.3l9.2,28.2L321.2,0h18.6v2.9c-2.4,0.1-4,0.5-4.8,1.1c-0.6,0.6-1,1.8-1,3.8v26.4c0,2,0.4,3.3,1,3.8
		c0.7,0.6,2.3,1,4.8,1.1V42h-21.4v-2.9c2.4-0.1,4-0.5,4.6-1.1c0.7-0.5,1-1.8,1-3.8V2.9h-0.4l-12,39.1h-4.3L294.7,2.9z M348.7,7.8
		c0-2-0.4-3.2-1-3.7c-0.6-0.6-2-1-4-1.2V0H364v2.9c-2.1,0.2-3.3,0.6-3.9,1.1c-0.6,0.6-1,1.8-1,3.8v26.4c0,2,0.4,3.2,1,3.8
		c0.6,0.6,1.8,1,3.9,1.1V42h-20.3v-2.9c2.1-0.2,3.4-0.6,4-1.1c0.6-0.6,1-1.8,1-3.8V7.8z M368.6,42v-2.9c2.2-0.2,3.5-0.6,4.2-1.1
		c0.6-0.6,0.9-1.8,0.9-3.8V7.8c0-2-0.2-3.2-0.9-3.7c-0.6-0.6-2-1-4.2-1.2V0h39.5l0.9,14.2h-3.3c-0.7-4-2.2-6.8-4.5-8.6
		c-2.3-1.8-5.7-2.7-10.3-2.7c-2.8,0-4.6,0.4-5.5,0.9c-0.9,0.6-1.3,2-1.3,4v10.9h2.6c2.4,0,4.3-0.6,5.5-2c1.2-1.3,2-3.4,2.2-6.4h2.9
		v19.8h-2.9c-0.2-2.9-1-5-2.2-6.4c-1.2-1.3-3.1-2.1-5.5-2.1H384v12.5c0,2.2,0.5,3.5,1.3,4c0.9,0.6,2.7,0.9,5.7,0.9
		c4.8,0,8.4-1,10.8-2.9c2.4-1.8,3.9-5,4.4-9.4h3.3l-1,15.3H368.6z"/>
	<path class="st0" d="M108.5,76.3h3.8l-8.2-18.2h-3.7l-8.1,18.2h3.7l1.6-3.4h9.4L108.5,76.3z M105.7,69.7H99l3.3-7.7L105.7,69.7z
		 M134.1,61.4h5.1c4.4,0,4.4,6.5,0,6.5h-5.1V61.4z M139.2,58.1c-2.8,0-5.6,0-8.6,0v18.2h3.4v-5.4h5.1
		C148.1,70.9,148,58.1,139.2,58.1L139.2,58.1z M168.7,61.4h5.1c4.4,0,4.4,6.5,0,6.5h-5.1V61.4z M173.8,58.1c-2.8,0-5.6,0-8.6,0v18.2
		h3.4v-5.4h5.1C182.7,70.9,182.6,58.1,173.8,58.1L173.8,58.1z M214.3,76.3h3.7l-8.1-18.2h-3.8L198,76.3h3.7l1.6-3.4h9.4L214.3,76.3z
		 M211.3,69.7h-6.7L208,62L211.3,69.7z M252.6,76l-5.5-6.2c3.4-0.6,4.6-3.2,4.6-5.6c0-3.2-2.3-6-6.6-6.1c-2.8,0.1-5.7,0-8.6,0v18.2
		h3.4v-6.1h3.3l5.3,6.1h4V76z M245.2,61.2c2.2,0,3.2,1.5,3.2,2.9c0,1.5-1,2.9-3.2,2.9h-5.1v-5.9H245.2z M284.7,72.8h-10.1v-4h9.8
		v-3.2h-9.8v-4.2h10.1v-3.4h-13.6c0,6.1,0,12.1,0,18.2h13.6V72.8z M304.5,58.1v18.2h12.7v-3.2h-9.4v-15H304.5z"/>
</g>
</svg>