<?xml version="1.0" encoding="utf-8"?>
<!-- Generator: Adobe Illustrator 19.0.0, SVG Export Plug-In . SVG Version: 6.00 Build 0)  -->
<svg version="1.1" id="Layer_1" xmlns="http://www.w3.org/2000/svg" xmlns:xlink="http://www.w3.org/1999/xlink" x="0px" y="0px"
	 viewBox="0 0 894.4 89.5" style="enable-background:new 0 0 894.4 89.5;" xml:space="preserve">
<style type="text/css">
	.st0{fill:#C19236;}
</style>
<g>
	<path class="st0" d="M32.1,71.3c0,4.4,0.8,7,2.5,8.3c1.7,1.2,5.5,1.9,11.2,1.9c8.6,0,15.1-2.3,20-7.2c4.8-4.7,7.6-11.5,8.4-20.7
		h6.7l-1.9,34H0v-6.1c4.4-0.5,7.2-1.2,8.4-2.5c1.2-1.1,1.9-3.7,1.9-7.6V16.2c0-3.9-0.6-6.4-1.9-7.6C7.2,7.3,4.4,6.6,0,6.1V0h42.3
		v6.1c-4.2,0.5-7,1.2-8.3,2.3c-1.2,1.2-1.9,3.7-1.9,7.8V71.3z M97,16.2c0-4.2-0.6-6.9-1.9-7.9c-1.2-1.1-4.1-1.9-8.6-2.2V0h41.6v6.1
		c-3.9,0.3-6.4,0.9-7.6,2.2c-1.2,1.1-1.7,3.7-1.7,7.9v38.7c0,9.2,1.6,15.8,4.7,20c3.3,4.2,8.4,6.2,15.4,6.2c7,0,12.2-2.2,15.4-6.4
		c3.4-4.2,5-10.9,5-19.8V16.2c0-4.2-0.6-6.9-1.7-7.9c-1.2-1.2-3.7-1.9-7.6-2.2V0h27.1v6.1c-4.4,0.3-7.2,1.1-8.6,2.2
		c-1.2,1.1-1.9,3.7-1.9,7.9V53c0,12.6-2.8,22-8.3,27.8c-5.6,5.8-14.5,8.7-26.7,8.7c-12,0-20.7-3-26.4-8.7C99.8,74.9,97,65.7,97,53
		V16.2z M201.3,16.2c0-3.9-0.8-6.5-2-7.6c-1.2-1.2-4.1-2-8.4-2.5V0H233v6.1c-4.4,0.5-7.2,1.2-8.4,2.5c-1.2,1.1-2,3.7-2,7.6v26.5
		l25.4-24c1.6-1.6,2.8-3,3.6-4.4c0.9-1.4,1.4-2.8,1.4-3.9c0-1.4-0.8-2.5-2.5-3.1c-1.6-0.8-4.1-1.2-7.2-1.2h-0.8V0h39.1v6.1h-0.8
		c-2.8,0-5.8,0.8-8.7,2c-3,1.4-5.8,3.3-8.4,5.8l-18.6,17l30.1,40.9c1.9,2.5,3.9,4.7,5.9,6.2c2.2,1.6,4.2,2.8,6.4,3.4v6.1h-43.2v-6.1
		c3.7-0.2,6.2-0.5,7.2-0.9c1.1-0.5,1.6-1.2,1.6-2.3c0-1.1-0.5-2.3-1.6-3.7v-0.2l-22.1-30.1l-6.9,6.1v21.1c0,3.9,0.8,6.4,2,7.6
		c1.2,1.2,4.1,2,8.4,2.5v6.1h-42.1v-6.1c4.4-0.5,7.2-1.2,8.4-2.5c1.2-1.2,2-3.7,2-7.6V16.2z M294.3,87.5v-6.1
		c4.4-0.5,7.2-1.2,8.4-2.5c1.2-1.1,1.9-3.7,1.9-7.6V16.2c0-3.9-0.6-6.5-1.9-7.6c-1.2-1.2-4.1-2-8.4-2.5V0h81.9l1.9,29.5h-6.9
		c-1.4-8.3-4.7-14.2-9.5-17.9c-4.8-3.6-11.9-5.5-21.4-5.5c-5.8,0-9.7,0.6-11.4,1.9c-1.7,1.1-2.7,3.9-2.7,8.3V39h5.3
		c5,0,8.9-1.4,11.4-4.2c2.7-2.6,4.2-7.2,4.7-13.1h6.1v41h-6.1c-0.5-5.9-2-10.5-4.7-13.1c-2.5-2.8-6.4-4.2-11.4-4.2h-5.3v25.9
		c0,4.4,0.9,7.2,2.7,8.3c1.9,1.2,5.8,1.9,11.9,1.9c10.1,0,17.8-2,22.6-6.1c5-4,8-10.6,9-19.8h6.7l-1.9,32H294.3z M511.5,57.1
		c0,6.4-0.3,11.1-1.1,14.4c-0.8,3.1-2.2,5.8-4.1,8.1c-2.7,3.3-6.1,5.8-10.6,7.5c-4.5,1.7-9.5,2.7-15.3,2.7c-7.5,0-13.4-1.7-17.8-5
		c-4.2-3.1-6.4-7.5-6.4-13.1c0-3.4,1.1-6.2,3.1-8.4c2.2-2.3,4.8-3.4,8.1-3.4c3.1,0,5.6,1.1,7.6,3c2,2,3.1,4.7,3.1,7.8
		c0,3.1-1.6,5.9-4.5,8.3c-0.8,0.8-1.1,1.2-1.1,1.6c0,0.8,0.5,1.4,1.6,2c1.1,0.6,2.3,0.9,3.7,0.9c3.9,0,6.9-1.7,8.9-5
		c2-3.3,3-8.3,3-14.8V16.2c0-3.9-0.6-6.4-2-7.6c-1.4-1.2-4.5-2-9.5-2.5V0H522v6.1c-4.4,0.5-7.2,1.2-8.4,2.5c-1.4,1.2-2,3.7-2,7.6
		V57.1z M553.6,51.9h23.7l-11.2-34.3L553.6,51.9z M528.7,87.5v-6.1c2.7-0.6,4.7-1.7,6.4-3.3c1.6-1.7,3.1-4.5,4.7-8.7L566.4,0h14
		l25.9,70.8c1.2,3.7,2.8,6.2,4.4,7.6c1.7,1.4,3.9,2.5,6.9,3v6.1h-42.4v-6.1c3.9-0.3,6.4-0.8,8-1.6c1.4-0.8,2.2-2,2.2-3.9
		c0-0.6-0.3-1.9-0.8-3.6c-0.2-0.3-0.2-0.5-0.2-0.5L580,58h-28.5l-3.6,10.9l-0.2,0.5c-0.9,2.8-1.4,4.8-1.4,6.1c0,1.7,0.6,3,1.9,3.9
		c1.4,0.8,3.7,1.6,7.3,2v6.1H528.7z M644.9,6.1h-1.1v65.2c0,4,0.6,6.7,2,7.8c1.4,1.2,4.5,2,9.5,2.3v6.1h-30.6v-6.1
		c5.1-0.3,8.3-1.1,9.7-2.3c1.2-1.1,2-3.7,2-7.8V16.2c0-4-0.8-6.7-2-7.8c-1.4-1.2-4.5-2-9.7-2.3V0h38.2l19.2,58.8L700.1,0h38.5v6.1
		c-5.1,0.3-8.3,1.1-9.7,2.3c-1.4,1.1-2,3.7-2,7.8v55.1c0,4,0.6,6.7,2,7.8c1.4,1.2,4.7,2,9.7,2.3v6.1h-44.3v-6.1
		c5.1-0.3,8.3-1.1,9.7-2.3c1.4-1.1,2-3.7,2-7.8V6.1h-0.9l-25,81.4h-8.7L644.9,6.1z M762.4,16.2c0-3.9-0.6-6.5-1.9-7.6
		c-1.2-1.2-4.1-2-8.4-2.5V0h42.3v6.1c-4.2,0.5-7,1.2-8.3,2.3c-1.2,1.2-1.9,3.7-1.9,7.8v55.1c0,4,0.6,6.5,1.9,7.8
		c1.2,1.1,4.1,1.9,8.3,2.3v6.1h-42.3v-6.1c4.4-0.5,7.2-1.2,8.4-2.5c1.2-1.2,1.9-3.7,1.9-7.6V16.2z M809.5,87.5v-6.1
		c4.2-0.5,7-1.2,8.4-2.5c1.2-1.1,1.9-3.7,1.9-7.6V16.2c0-3.9-0.6-6.5-1.9-7.6c-1.4-1.2-4.2-2-8.4-2.5V0h81.9l1.7,29.5h-6.7
		c-1.6-8.3-4.7-14.2-9.5-17.9c-4.8-3.6-12-5.5-21.4-5.5c-5.9,0-9.7,0.6-11.4,1.9c-1.7,1.1-2.7,3.9-2.7,8.3V39h5.3
		c5,0,8.9-1.4,11.4-4.2c2.5-2.6,4.1-7.2,4.7-13.1h5.9v41h-5.9c-0.6-5.9-2.2-10.5-4.7-13.1c-2.5-2.8-6.4-4.2-11.4-4.2h-5.3v25.9
		c0,4.4,0.9,7.2,2.7,8.3c1.7,1.2,5.8,1.9,11.9,1.9c10.1,0,17.6-2,22.6-6.1c4.8-4,8-10.6,9-19.8h6.7l-1.9,32H809.5z"/>
</g>
</svg>
