<?xml version="1.0" encoding="utf-8"?>
<!-- Generator: Adobe Illustrator 19.0.0, SVG Export Plug-In . SVG Version: 6.00 Build 0)  -->
<svg version="1.1" id="Layer_1" xmlns="http://www.w3.org/2000/svg" xmlns:xlink="http://www.w3.org/1999/xlink" x="0px" y="0px"
	 viewBox="0 0 737 79.7" style="enable-background:new 0 0 737 79.7;" xml:space="preserve">
<style type="text/css">
	.st0{fill:none;}
	.st1{fill:#DFA736;}
</style>
<g id="XMLID_29_">
	<rect id="XMLID_127_" x="-65.8" y="-5.4" class="st0" width="868" height="212"/>
	<path id="XMLID_108_" class="st1" d="M71.8,52.8L70.3,77H0.8v-4.2c1.2-0.1,2.7-0.3,4.4-0.5c1.7-0.2,2.8-0.5,3.3-0.7
		c1.3-0.5,2.2-1.2,2.7-2.1c0.5-0.9,0.7-2,0.7-3.4V12.9c0-1.3-0.2-2.3-0.6-3.2c-0.4-0.8-1.3-1.6-2.8-2.3C7.3,7,6,6.6,4.5,6.3
		C2.9,6,1.7,5.8,0.8,5.7V1.5h41.5v4.2c-1.1,0.1-2.5,0.3-4,0.5c-1.5,0.2-2.9,0.5-4,0.8c-1.4,0.5-2.3,1.2-2.8,2.2s-0.7,2.1-0.7,3.3
		v49.7c0,2.3,0.2,4.2,0.5,5.5c0.3,1.3,0.9,2.3,1.9,3c0.9,0.7,2.2,1.1,3.9,1.3c1.7,0.2,3.9,0.3,6.8,0.3c2.8,0,5.6-0.2,8.3-0.5
		s4.6-1.1,5.8-2.2c1.8-1.8,3.7-4.4,5.6-7.6c1.9-3.3,3.4-6.3,4.6-9H71.8z"/>
	<path id="XMLID_110_" class="st1" d="M157.9,5.7c-1,0.1-2.5,0.3-4.4,0.7c-1.9,0.4-3.6,1-4.9,1.9c-1.3,0.9-2.3,2.5-2.8,4.8
		s-0.8,5.8-0.8,10.4v28.1c0,8.3-2.8,14.9-8.4,20c-5.6,5-13,7.6-22.2,7.6c-10.8,0-19.1-2.4-25-7.3c-5.9-4.9-8.8-11.6-8.8-20.3V12.8
		c0-1.2-0.2-2.3-0.7-3.2C79.3,8.8,78.4,8,77,7.2c-0.9-0.5-2.1-0.8-3.4-1.1c-1.3-0.3-2.4-0.5-3.3-0.6v-4h39.6v4
		c-1.1,0.1-2.3,0.2-3.5,0.4c-1.2,0.2-2.4,0.5-3.6,0.9c-1.3,0.4-2.3,1.1-2.7,2.1c-0.5,1-0.7,2.1-0.7,3.4v38.1
		c0,7.5,1.6,12.9,4.9,16.3c3.3,3.4,8.1,5.1,14.4,5.1c6.2,0,11-1.9,14.5-5.6c3.5-3.8,5.3-9.3,5.3-16.6V24c0-4.5-0.3-7.9-0.9-10.2
		c-0.6-2.3-1.6-3.9-2.8-4.9c-0.9-0.8-2.5-1.5-4.8-2.1c-2.3-0.6-3.9-1-4.8-1.2V1.5h32.8V5.7z"/>
	<path id="XMLID_112_" class="st1" d="M251.2,77h-29.9c-4.5-6.9-8.6-12.7-12.2-17.4c-3.6-4.6-8.2-10.5-13.9-17.5h-2.8v23.7
		c0,1.3,0.2,2.4,0.7,3.2c0.5,0.9,1.4,1.6,2.8,2.2c0.6,0.3,1.6,0.6,2.8,0.9c1.3,0.3,2.5,0.5,3.8,0.6V77h-40.1v-4.2
		c1-0.1,2.3-0.2,4.1-0.3c1.8-0.1,3-0.4,3.7-0.6c1.3-0.5,2.2-1.2,2.7-2.1c0.5-0.9,0.7-2,0.7-3.4V12.9c0-1.2-0.2-2.3-0.6-3.1
		s-1.3-1.6-2.8-2.3c-1.1-0.5-2.4-0.9-4-1.2c-1.6-0.3-2.8-0.5-3.8-0.6V1.5h41.5v4.2c-1.1,0.1-2.4,0.3-4,0.5c-1.5,0.2-2.9,0.5-4,0.8
		c-1.4,0.5-2.3,1.2-2.8,2.2c-0.5,1-0.7,2.1-0.7,3.3v25.4h2.2c2.8-2.5,6-5.6,9.7-9.1c3.7-3.5,6.5-6.5,8.6-8.7
		c2.8-3.2,4.9-5.7,6.3-7.5c1.3-1.8,2-3.4,2-4.8c0-0.6-0.6-1.1-1.9-1.4s-3.2-0.5-5.9-0.7V1.5h32.8v4.2c-4,0.4-7.3,1.1-10,2.2
		c-2.7,1-5.4,2.7-8,5.1c-3.8,3.4-6.9,6.4-9.4,8.8c-2.5,2.5-5.6,5.7-9.5,9.6c3.4,4.2,7.5,9.2,12.3,15.3s9.6,11.9,14.3,17.6
		c1.2,1.5,2.6,2.8,4.1,4.2c1.6,1.3,3.3,2.4,5.2,3.2c0.9,0.4,1.9,0.7,3,0.9s2.1,0.3,2.9,0.4V77z"/>
	<path id="XMLID_114_" class="st1" d="M321,20.8h-4c-1-2.9-2.8-5.8-5.3-8.7c-2.5-2.9-5-4.7-7.5-5.2c-1.1-0.2-2.5-0.4-4.4-0.5
		c-1.9-0.1-3.5-0.1-4.7-0.1h-11v29.1h7.8c2,0,3.7-0.2,5.3-0.7c1.6-0.5,3.1-1.3,4.4-2.7c0.8-0.8,1.6-2.3,2.5-4.3s1.4-3.8,1.6-5.4h4
		v31.5h-4c-0.2-1.5-0.8-3.4-1.6-5.6c-0.9-2.3-1.7-3.8-2.5-4.7c-1.2-1.3-2.6-2.2-4.2-2.6c-1.6-0.5-3.4-0.7-5.5-0.7H284v21.8
		c0,2.3,0.2,4.1,0.5,5.4c0.3,1.3,1,2.4,1.9,3.1c0.9,0.7,2.1,1.1,3.6,1.3c1.5,0.2,3.6,0.3,6.3,0.3c1.2,0,2.7,0,4.5-0.1
		c1.7,0,3.3-0.1,4.6-0.3c1.5-0.2,2.9-0.4,4.2-0.8s2.3-0.9,2.9-1.5c1.7-1.7,3.6-4.4,5.7-8c2.1-3.6,3.5-6.2,4.2-8h3.9L324.9,77h-70.8
		v-4.2c1-0.1,2.3-0.2,4-0.4s2.9-0.5,3.6-0.7c1.3-0.6,2.3-1.3,2.7-2.2c0.5-0.9,0.7-2,0.7-3.3V12.9c0-1.3-0.2-2.3-0.6-3.2
		c-0.4-0.8-1.3-1.6-2.8-2.3c-0.9-0.4-2.2-0.8-3.9-1.2c-1.7-0.4-2.9-0.6-3.8-0.7V1.5h67V20.8z"/>
	<path id="XMLID_116_" class="st1" d="M419.6,5.7C418.2,5.8,417,6,416,6.2c-1,0.2-2.1,0.4-3.4,0.7c-1.5,0.4-2.4,1.1-2.8,2.1
		s-0.6,2.1-0.6,3.4v41.7c0,3.8-0.8,7.4-2.3,10.5c-1.5,3.2-3.7,5.9-6.4,8c-2.7,2.1-5.8,3.7-9.2,4.8c-3.4,1.1-7,1.6-10.8,1.6
		c-6.6,0-12-1.6-16-4.8c-4.1-3.2-6.1-7.6-6.1-13.1c0-3.3,0.9-6,2.8-8.2c1.9-2.2,4.4-3.2,7.7-3.2c3.1,0,5.5,0.9,7.4,2.7
		s2.7,4,2.7,6.7c0,2.3-0.8,4.4-2.4,6.3c-1.6,1.9-3.4,3.7-5.4,5.3v0.7c0.3,0.7,1,1.3,2.1,1.8c1.1,0.5,2.2,0.7,3.3,0.7
		c4.3,0,7.6-1.5,10.1-4.6s3.7-7.7,3.7-13.8V12.9c0-1.3-0.2-2.3-0.6-3.2c-0.4-0.9-1.3-1.6-2.8-2.2c-1.1-0.5-2.4-0.9-3.9-1.2
		s-2.8-0.6-3.8-0.7V1.5h40.3V5.7z"/>
	<path id="XMLID_118_" class="st1" d="M501.2,77h-41.1v-4.2c1.9-0.1,4.2-0.5,6.7-1c2.6-0.5,3.9-1.2,3.9-2c0-0.3,0-0.6-0.1-1
		c-0.1-0.4-0.2-0.8-0.5-1.4l-6.4-15.6h-26.1c-0.6,1.5-1.3,3.2-2,5.1c-0.7,2-1.3,3.7-1.9,5.2c-0.7,2-1.1,3.4-1.2,4.3
		c-0.1,0.9-0.2,1.5-0.2,1.9c0,1.1,0.9,2.1,2.6,2.9c1.7,0.8,4.6,1.4,8.6,1.7V77h-31v-4.2c1.2-0.1,2.5-0.3,4-0.6
		c1.5-0.3,2.6-0.7,3.5-1.3c1.5-0.9,2.7-1.9,3.7-3.1c1-1.2,1.9-2.7,2.5-4.4c4.1-10,8.2-20,12.4-30c4.1-10,8.7-21,13.7-33.1H463
		c7,17.1,12.4,30.6,16.3,40.6s7.3,18.2,10.1,24.7c0.5,1.1,1,2,1.8,2.9c0.7,0.9,1.7,1.7,3,2.5c1,0.6,2.1,1,3.5,1.3
		c1.3,0.3,2.5,0.5,3.6,0.5V77z M461.5,46.5l-10.9-27.3l-10.8,27.3H461.5z"/>
	<path id="XMLID_121_" class="st1" d="M610.5,77h-40.9v-4.2c1.2-0.1,2.7-0.3,4.4-0.5c1.8-0.2,3-0.5,3.6-0.8c1.3-0.5,2.3-1.3,2.8-2.2
		c0.6-0.9,0.9-2.1,0.9-3.5V9.4l-26,66.4h-6.7c-0.3-1.2-1.1-3.5-2.4-7c-1.3-3.5-2.3-6.3-3.1-8.4L524.1,8.6v45.9c0,4.4,0.3,7.7,0.9,10
		c0.6,2.3,1.5,4,2.8,5c0.9,0.7,2.5,1.5,4.8,2.1c2.3,0.7,3.9,1.1,4.8,1.2V77h-32.5v-4.2c0.9-0.1,2.3-0.3,4.3-0.7c2-0.4,3.6-1,4.9-1.9
		c1.4-1,2.4-2.7,2.9-5c0.5-2.4,0.7-5.7,0.7-10.1V17.7c0-2.3-0.3-4.2-0.9-5.7c-0.6-1.5-1.4-2.7-2.6-3.6c-1.4-1.1-2.9-1.8-4.4-2.1
		c-1.5-0.3-3-0.5-4.5-0.6V1.5h34.8l18.6,49.8l15.7-40.4c0.5-1.5,1-3.3,1.5-5.3c0.5-2.1,0.8-3.4,0.8-4h33.5v4.2
		c-1.1,0.1-2.3,0.2-3.6,0.4c-1.2,0.2-2.4,0.5-3.6,0.9c-1.4,0.5-2.3,1.2-2.7,2.2c-0.4,1-0.7,2.1-0.7,3.3v53.5c0,1.3,0.2,2.4,0.7,3.2
		c0.4,0.9,1.4,1.6,2.7,2.3c0.7,0.3,1.9,0.6,3.5,0.9s2.9,0.5,3.8,0.6V77z"/>
	<path id="XMLID_123_" class="st1" d="M658.5,77h-41.9v-4.2c1-0.1,2.4-0.2,4.2-0.3c1.9-0.1,3.1-0.4,3.9-0.6c1.3-0.5,2.2-1.2,2.7-2.1
		c0.5-0.9,0.7-2,0.7-3.3V12.9c0-1.2-0.2-2.3-0.7-3.2c-0.5-0.9-1.4-1.7-2.7-2.2c-0.9-0.4-2.1-0.7-3.8-1.1c-1.7-0.4-3.1-0.6-4.3-0.8
		V1.5h41.9v4.2c-1.1,0.1-2.4,0.3-4,0.5c-1.6,0.2-2.9,0.5-4,0.8c-1.4,0.5-2.3,1.2-2.8,2.2c-0.5,1-0.7,2.1-0.7,3.3v53.5
		c0,1.3,0.2,2.4,0.7,3.3c0.5,0.9,1.4,1.6,2.7,2.2c0.7,0.3,2,0.6,3.7,0.9s3.2,0.5,4.3,0.6V77z"/>
	<path id="XMLID_125_" class="st1" d="M731.4,20.8h-4c-1-2.9-2.8-5.8-5.3-8.7c-2.5-2.9-5-4.7-7.5-5.2c-1.1-0.2-2.5-0.4-4.4-0.5
		c-1.9-0.1-3.5-0.1-4.7-0.1h-11v29.1h7.8c2,0,3.7-0.2,5.3-0.7c1.6-0.5,3.1-1.3,4.4-2.7c0.8-0.8,1.6-2.3,2.5-4.3s1.4-3.8,1.6-5.4h4
		v31.5h-4c-0.2-1.5-0.8-3.4-1.6-5.6c-0.9-2.3-1.7-3.8-2.5-4.7c-1.2-1.3-2.6-2.2-4.2-2.6c-1.6-0.5-3.4-0.7-5.5-0.7h-7.8v21.8
		c0,2.3,0.2,4.1,0.5,5.4c0.3,1.3,1,2.4,1.9,3.1c0.9,0.7,2.1,1.1,3.6,1.3c1.5,0.2,3.6,0.3,6.3,0.3c1.2,0,2.7,0,4.5-0.1
		c1.7,0,3.3-0.1,4.6-0.3c1.5-0.2,2.9-0.4,4.2-0.8s2.3-0.9,2.9-1.5c1.7-1.7,3.6-4.4,5.7-8c2.1-3.6,3.5-6.2,4.2-8h3.9L735.3,77h-70.8
		v-4.2c1-0.1,2.3-0.2,4-0.4s2.9-0.5,3.6-0.7c1.3-0.6,2.3-1.3,2.7-2.2c0.5-0.9,0.7-2,0.7-3.3V12.9c0-1.3-0.2-2.3-0.6-3.2
		c-0.4-0.8-1.3-1.6-2.8-2.3c-0.9-0.4-2.2-0.8-3.9-1.2c-1.7-0.4-2.9-0.6-3.8-0.7V1.5h67V20.8z"/>
</g>
<g id="XMLID_1_">
</g>
<g id="XMLID_107_">
</g>
<g id="XMLID_128_">
</g>
<g id="XMLID_129_">
</g>
<g id="XMLID_130_">
</g>
<g id="XMLID_131_">
</g>
</svg>
